<svg width="16" height="17" viewBox="0 0 16 17" fill="none" xmlns="http://www.w3.org/2000/svg">
  <path d="M12.9308 3.11133H3.06917C1.9264 3.11133 1 3.93962 1 4.96137V13.2613C1 14.283 1.9264 15.1113 3.06917 15.1113H12.9308C14.0736 15.1113 15 14.283 15 13.2613V4.96137C15 3.93962 14.0736 3.11133 12.9308 3.11133Z" stroke="#A0A3BC" stroke-width="2" />
  <path d="M4.5 3.11133C4.5 3.38747 4.27614 3.61133 4 3.61133C3.72386 3.61133 3.5 3.38747 3.5 3.11133V1.11133C3.5 0.835186 3.72386 0.611328 4 0.611328C4.27614 0.611328 4.5 0.835186 4.5 1.11133V3.11133Z" stroke="#A0A3BC" stroke-linecap="round" stroke-linejoin="round" />
  <path d="M12.5 3.11133C12.5 3.38747 12.2761 3.61133 12 3.61133C11.7239 3.61133 11.5 3.38747 11.5 3.11133V1.11133C11.5 0.835186 11.7239 0.611328 12 0.611328C12.2761 0.611328 12.5 0.835186 12.5 1.11133V3.11133Z" stroke="#A0A3BC" stroke-linecap="round" stroke-linejoin="round" />
  <path d="M1 5.61133C0.723858 5.61133 0.5 5.83519 0.5 6.11133C0.5 6.38747 0.723858 6.61133 1 6.61133H15C15.2761 6.61133 15.5 6.38747 15.5 6.11133C15.5 5.83519 15.2761 5.61133 15 5.61133H1Z" stroke="#A0A3BC" stroke-linecap="round" stroke-linejoin="round" />
  <path d="M4.62317 8.71851C4.34703 8.71851 4.12317 8.94236 4.12317 9.21851C4.12317 9.49465 4.34703 9.71851 4.62317 9.71851H5.97081C6.24695 9.71851 6.47081 9.49465 6.47081 9.21851C6.47081 8.94236 6.24695 8.71851 5.97081 8.71851H4.62317Z" stroke="#A0A3BC" stroke-linecap="round" stroke-linejoin="round" />
  <path d="M9.83997 8.71851C9.56382 8.71851 9.33997 8.94236 9.33997 9.21851C9.33997 9.49465 9.56382 9.71851 9.83997 9.71851H11.1876C11.4637 9.71851 11.6876 9.49465 11.6876 9.21851C11.6876 8.94236 11.4637 8.71851 11.1876 8.71851H9.83997Z" stroke="#A0A3BC" stroke-linecap="round" stroke-linejoin="round" />
  <path d="M4.62317 11.6709C4.34703 11.6709 4.12317 11.8948 4.12317 12.1709C4.12317 12.447 4.34703 12.6709 4.62317 12.6709H5.97081C6.24695 12.6709 6.47081 12.447 6.47081 12.1709C6.47081 11.8948 6.24695 11.6709 5.97081 11.6709H4.62317Z" stroke="#A0A3BC" stroke-linecap="round" stroke-linejoin="round" />
  <path d="M9.83997 11.6709C9.56382 11.6709 9.33997 11.8948 9.33997 12.1709C9.33997 12.447 9.56382 12.6709 9.83997 12.6709H11.1876C11.4637 12.6709 11.6876 12.447 11.6876 12.1709C11.6876 11.8948 11.4637 11.6709 11.1876 11.6709H9.83997Z" stroke="#A0A3BC" stroke-linecap="round" stroke-linejoin="round" />
</svg>