<svg width="84" height="84" viewBox="0 0 84 84" fill="none" xmlns="http://www.w3.org/2000/svg">
<g filter="url(#filter0_d_7105_14194)">
<path d="M42 74.1113C49.1201 74.1113 56.0803 72 62.0005 68.0442C67.9207 64.0885 72.5349 58.4661 75.2596 51.8879C77.9844 45.3098 78.6973 38.0714 77.3083 31.0881C75.9192 24.1048 72.4905 17.6902 67.4558 12.6555C62.4211 7.62081 56.0066 4.19214 49.0232 2.80307C42.0399 1.41401 34.8015 2.12693 28.2234 4.85168C21.6453 7.57643 16.0228 12.1906 12.0671 18.1108C8.11136 24.031 6 30.9912 6 38.1113C6 47.6591 9.79284 56.8159 16.5442 63.5672C23.2955 70.3185 32.4522 74.1113 42 74.1113V74.1113Z" stroke="#F56E1E" stroke-width="3"/>
<path d="M63.0721 47.2817L51.6201 25.7689C51.2715 25.1153 50.7665 24.5582 50.1502 24.1472C49.5339 23.7363 48.8255 23.4843 48.0881 23.4137L39.6881 22.6137C39.4086 21.3029 38.9391 20.04 38.2945 18.8649C37.2701 16.835 35.7409 15.1027 33.8537 13.8345C31.8185 12.6049 29.7857 12.3945 28.1809 13.2473C26.5209 14.1017 25.6113 15.9225 25.5033 18.2777C25.5138 20.5563 26.0839 22.7974 27.1633 24.8041C27.7798 26.0048 28.574 27.1055 29.5193 28.0689L25.4513 35.4545C25.0964 36.1025 24.9104 36.8294 24.9104 37.5681C24.9104 38.3069 25.0964 39.0338 25.4513 39.6817L36.8489 61.1409C37.2338 61.8556 37.8054 62.4523 38.5028 62.8677C39.2002 63.283 39.9972 63.5013 40.8089 63.4993C41.5387 63.4995 42.2568 63.3157 42.8969 62.9649L61.2529 53.2217C62.2793 52.6728 63.0468 51.7399 63.3875 50.6269C63.7282 49.5138 63.6145 48.3112 63.0713 47.2817M28.8233 18.3833C28.8761 17.3129 29.1961 16.4561 29.7329 16.1889C30.1262 16.0739 30.5418 16.0576 30.9429 16.1413C31.3441 16.225 31.7184 16.4062 32.0329 16.6689C33.4225 17.6193 34.5461 18.9093 35.2969 20.4161C35.6183 21.0161 35.886 21.6434 36.0969 22.2905L35.7217 22.2377C34.8545 22.1617 33.9839 22.3387 33.2153 22.7471C32.4466 23.1556 31.8127 23.7781 31.3905 24.5393L31.2305 24.8593C30.8194 24.313 30.4437 23.7409 30.1057 23.1465C29.2996 21.6859 28.8603 20.0513 28.8257 18.3833M59.6457 50.3321L41.2921 60.0705C41.042 60.1971 40.753 60.2233 40.4843 60.1437C40.2155 60.0641 39.9874 59.8848 39.8465 59.6425L28.3953 38.1297C28.3158 37.9723 28.2744 37.7985 28.2744 37.6221C28.2744 37.4458 28.3158 37.2719 28.3953 37.1145L32.1937 30.1545C33.1132 30.6604 34.142 30.9349 35.1913 30.9545C35.459 30.9633 35.727 30.9456 35.9913 30.9017C36.206 30.8644 36.4111 30.7849 36.5949 30.6678C36.7786 30.5507 36.9374 30.3983 37.0618 30.2194C37.1863 30.0406 37.2741 29.8388 37.32 29.6258C37.366 29.4128 37.3693 29.1928 37.3297 28.9785C37.2974 28.7614 37.2211 28.5532 37.1053 28.3667C36.9896 28.1802 36.8369 28.0193 36.6567 27.894C36.4765 27.7687 36.2725 27.6816 36.0574 27.6381C35.8422 27.5946 35.6205 27.5956 35.4057 27.6409C34.8446 27.6818 34.2843 27.5518 33.7985 27.2681L34.3353 26.2505C34.4241 26.0723 34.5611 25.9225 34.7309 25.8183C34.9006 25.714 35.0961 25.6595 35.2953 25.6609H35.4033L47.7641 26.7809C47.9438 26.803 48.1156 26.8681 48.2647 26.9708C48.4139 27.0734 48.5361 27.2106 48.6209 27.3705L60.0745 48.8329C60.2096 49.0898 60.2405 49.3889 60.1608 49.6679C60.0811 49.947 59.8969 50.1846 59.6465 50.3313" fill="#4E4B66"/>
</g>
<path d="M46.0952 50.1889L43.5576 45.2089L47.1304 43.3905C50.1568 41.8481 50.7776 38.9105 49.536 36.4737C48.2824 34.0153 45.5768 32.8025 42.5256 34.3545L35.9696 37.6937L43.112 51.7097L46.0952 50.1889ZM45.3928 40.9657L42.2168 42.5825L40.2928 38.8001L43.4664 37.1833C43.716 37.0243 43.9962 36.9197 44.2888 36.8762C44.5815 36.8326 44.8801 36.8512 45.1651 36.9307C45.4501 37.0101 45.7152 37.1487 45.9431 37.3374C46.171 37.526 46.3567 37.7606 46.488 38.0257C46.6235 38.2882 46.7026 38.5761 46.7203 38.871C46.7379 39.1658 46.6938 39.4611 46.5907 39.738C46.4876 40.0148 46.3278 40.267 46.1215 40.4784C45.9152 40.6898 45.667 40.8558 45.3928 40.9657Z" fill="#4E4B66"/>
<path d="M38.7087 49.6698L39.6543 51.525L49.7799 46.365L48.8343 44.5098L38.7087 49.6698Z" fill="#4E4B66"/>
<path d="M42.8215 51.1865L44.0583 53.6081L47.0535 52.0881L45.8167 49.6609L42.8215 51.1865Z" fill="#2B2E34"/>
<defs>
<filter id="filter0_d_7105_14194" x="0.5" y="0.611328" width="83" height="83" filterUnits="userSpaceOnUse" color-interpolation-filters="sRGB">
<feFlood flood-opacity="0" result="BackgroundImageFix"/>
<feColorMatrix in="SourceAlpha" type="matrix" values="0 0 0 0 0 0 0 0 0 0 0 0 0 0 0 0 0 0 127 0" result="hardAlpha"/>
<feOffset dy="4"/>
<feGaussianBlur stdDeviation="2"/>
<feComposite in2="hardAlpha" operator="out"/>
<feColorMatrix type="matrix" values="0 0 0 0 0 0 0 0 0 0 0 0 0 0 0 0 0 0 0.25 0"/>
<feBlend mode="normal" in2="BackgroundImageFix" result="effect1_dropShadow_7105_14194"/>
<feBlend mode="normal" in="SourceGraphic" in2="effect1_dropShadow_7105_14194" result="shape"/>
</filter>
</defs>
</svg>
