<svg width="76" height="76" viewBox="0 0 76 76" fill="none" xmlns="http://www.w3.org/2000/svg">
<path d="M38 74.1113C45.1201 74.1113 52.0803 72 58.0005 68.0442C63.9207 64.0885 68.5349 58.4661 71.2596 51.8879C73.9844 45.3098 74.6973 38.0714 73.3083 31.0881C71.9192 24.1048 68.4905 17.6902 63.4558 12.6555C58.4211 7.62081 52.0066 4.19214 45.0232 2.80307C38.0399 1.41401 30.8015 2.12693 24.2234 4.85168C17.6453 7.57643 12.0228 12.1906 8.06709 18.1108C4.11136 24.031 2 30.9912 2 38.1113C2 47.6591 5.79284 56.8159 12.5442 63.5672C19.2955 70.3185 28.4522 74.1113 38 74.1113V74.1113Z" stroke="#F56E1E" stroke-width="3"/>
<path d="M58.0112 28.4978L57.3023 24.9474L53.5728 25.0794C52.1072 25.0818 44.7848 24.8178 41.5 19.5378L37.9496 13.985L34.3544 19.577C31.1592 24.8178 23.7896 25.037 22.3712 25.037L18.5968 24.905L17.888 28.4554C17.2422 33.1795 17.3773 37.9775 18.288 42.6578C19.3639 48.1778 21.9442 53.2932 25.744 57.4394V55.4874H28.096C24.6031 51.733 22.2348 47.0731 21.2608 42.0386C20.3542 37.7752 20.2492 33.3804 20.9512 29.0786L21.1288 28.0578L22.372 28.1026C24.1024 28.1026 32.8896 27.793 36.9744 21.2226L37.9952 19.6226L38.9712 21.1754C43.0552 27.7906 51.8391 28.0978 53.6175 28.0978L54.8176 28.053L54.9951 29.0738C55.698 33.3755 55.593 37.7705 54.6855 42.0338C53.6918 47.0616 51.3261 51.7163 47.8504 55.4826H50.3344V57.345C54.0844 53.1946 56.6323 48.1006 57.7039 42.6106C58.6858 37.9667 58.79 33.18 58.0112 28.4978Z" fill="#4E4B66"/>
<path d="M48.5136 33.7371L48.2464 32.4451L46.8256 32.4899C45.9392 32.4899 41.3232 32.3123 39.2808 28.9395L37.9928 26.9395L36.7072 28.9891C34.6648 32.3171 30.0488 32.4939 29.1608 32.4939L27.74 32.4451L27.4752 33.7331C27.0486 36.2813 27.1089 38.8873 27.6528 41.413C28.1533 44.0599 29.3037 46.5409 31.0004 48.6331C32.6972 50.7253 34.8871 52.3631 37.3736 53.3994L37.9952 53.7114L38.6168 53.4442C41.1056 52.4131 43.2977 50.7771 44.9944 48.6846C46.6912 46.5921 47.8389 44.1092 48.3336 41.4611C48.8801 38.9207 48.9404 36.2998 48.5112 33.7371M37.1944 45.5434L33.2896 41.6387L35.2896 39.6386L37.1944 41.5491L41.4112 37.3323L43.4112 39.3323L37.1944 45.5434Z" fill="#4E4B66"/>
</svg>
