<svg width="26" height="26" viewBox="0 0 26 26" fill="none" xmlns="http://www.w3.org/2000/svg">
  <path d="M24.0811 12.1913C23.8833 12.1799 23.692 12.1098 23.5275 11.9885L13.0027 3.28825L2.47786 11.9885C2.38082 12.0686 2.27039 12.1269 2.15289 12.16C2.03539 12.1932 1.91311 12.2005 1.79304 12.1816C1.67296 12.1627 1.55744 12.118 1.45307 12.05C1.3487 11.9819 1.25751 11.8919 1.18473 11.7851C1.11195 11.6783 1.05901 11.5567 1.0289 11.4273C0.998801 11.298 0.992127 11.1634 1.00928 11.0312C1.02643 10.899 1.06707 10.7718 1.12887 10.6569C1.19067 10.542 1.27243 10.4416 1.36947 10.3615L12.4479 1.21369C12.6053 1.07535 12.8007 1 13.0021 1C13.2035 1 13.3989 1.07535 13.5563 1.21369L24.6348 10.3615C24.8285 10.525 24.9562 10.7656 24.9907 11.0316C25.0251 11.2976 24.9635 11.5679 24.819 11.7845C24.7281 11.905 24.6156 12.0034 24.4884 12.0734C24.3611 12.1434 24.2232 12.1836 24.0811 12.1913ZM21.9766 21.9102V13.8195C21.9766 13.5499 21.8793 13.2914 21.7062 13.1008C21.5331 12.9103 21.2983 12.8032 21.0535 12.8032C20.8087 12.8032 20.5739 12.9103 20.4008 13.1008C20.2276 13.2914 20.1304 13.5499 20.1304 13.8195V21.9102C20.1251 22.1887 20.0222 22.4542 19.8433 22.6512C19.6644 22.8482 19.4232 22.9614 19.1702 22.9672H6.83622C6.58322 22.9614 6.34207 22.8482 6.16313 22.6512C5.9842 22.4542 5.88134 22.1887 5.87605 21.9102V13.8195C5.87605 13.686 5.85218 13.5539 5.80579 13.4306C5.7594 13.3073 5.6914 13.1952 5.60568 13.1008C5.51996 13.0065 5.41819 12.9316 5.30619 12.8805C5.19419 12.8295 5.07416 12.8032 4.95293 12.8032C4.83171 12.8032 4.71168 12.8295 4.59968 12.8805C4.48768 12.9316 4.38591 13.0065 4.30019 13.1008C4.21447 13.1952 4.14647 13.3073 4.10008 13.4306C4.05369 13.5539 4.02982 13.686 4.02982 13.8195V21.9102C4.02968 22.3159 4.10217 22.7178 4.24315 23.0927C4.38413 23.4676 4.59085 23.8083 4.85148 24.0952C5.1121 24.3822 5.42153 24.6097 5.76208 24.7649C6.10264 24.9202 6.46763 25 6.83622 24.9998H19.1332C19.5046 25.0043 19.8731 24.9277 20.2175 24.7745C20.5619 24.6213 20.8753 24.3945 21.1396 24.1073C21.404 23.82 21.6141 23.478 21.7577 23.1009C21.9014 22.7238 21.9758 22.3191 21.9766 21.9102Z" fill="#F56E1E" stroke="#F56E1E" stroke-width="0.35" />
</svg>