<svg width="24" height="24" viewBox="0 0 24 24" fill="none" xmlns="http://www.w3.org/2000/svg">
  <path d="M8.01588 1.5H2.48412C1.94061 1.5 1.5 1.94061 1.5 2.48412V8.01588C1.5 8.55939 1.94061 9 2.48412 9H8.01588C8.55939 9 9 8.55939 9 8.01588V2.48412C9 1.94061 8.55939 1.5 8.01588 1.5Z" stroke="#6F7290" stroke-width="2" />
  <path d="M21.5159 1.5H15.9841C15.4406 1.5 15 1.94061 15 2.48412V8.01588C15 8.55939 15.4406 9 15.9841 9H21.5159C22.0594 9 22.5 8.55939 22.5 8.01588V2.48412C22.5 1.94061 22.0594 1.5 21.5159 1.5Z" stroke="#6F7290" stroke-width="2" />
  <path d="M8.01588 15H2.48412C1.94061 15 1.5 15.4406 1.5 15.9841V21.5159C1.5 22.0594 1.94061 22.5 2.48412 22.5H8.01588C8.55939 22.5 9 22.0594 9 21.5159V15.9841C9 15.4406 8.55939 15 8.01588 15Z" stroke="#6F7290" stroke-width="2" />
  <path d="M21.5159 15H15.9841C15.4406 15 15 15.4406 15 15.9841V21.5159C15 22.0594 15.4406 22.5 15.9841 22.5H21.5159C22.0594 22.5 22.5 22.0594 22.5 21.5159V15.9841C22.5 15.4406 22.0594 15 21.5159 15Z" stroke="#6F7290" stroke-width="2" />
</svg>