<svg width="44" height="44" viewBox="0 0 44 44" fill="none" xmlns="http://www.w3.org/2000/svg">
<path d="M20.9755 30.439C22.8472 30.439 24.6768 29.8839 26.2331 28.8441C27.7894 27.8042 29.0023 26.3262 29.7186 24.597C30.4349 22.8678 30.6223 20.965 30.2571 19.1292C29.892 17.2935 28.9907 15.6073 27.6672 14.2838C26.3437 12.9603 24.6574 12.059 22.8217 11.6938C20.986 11.3287 19.0832 11.5161 17.3539 12.2323C15.6247 12.9486 14.1467 14.1616 13.1069 15.7178C12.067 17.2741 11.512 19.1038 11.512 20.9755C11.512 23.4853 12.509 25.8924 14.2838 27.6672C16.0585 29.4419 18.4656 30.439 20.9755 30.439V30.439Z" stroke="#F56E1E" stroke-width="3" stroke-linecap="round" stroke-linejoin="round"/>
<path d="M32.5436 32.5436L27.7766 27.7766" stroke="#F56E1E" stroke-width="3" stroke-linecap="round" stroke-linejoin="round"/>
</svg>
