<svg width="72" height="24" viewBox="0 0 72 24" fill="none" xmlns="http://www.w3.org/2000/svg">
<path d="M12 0C5.37097 0 0 5.37097 0 12C0 18.629 5.37097 24 12 24C18.629 24 24 18.629 24 12C24 5.37097 18.629 0 12 0ZM17.8548 8.22581L15.9194 17.5161C15.7742 18.1935 15.3871 18.3387 14.8065 18.0484L11.8065 15.8226L10.3548 17.2258C10.2097 17.371 10.0645 17.5161 9.77419 17.5161L9.96774 14.4677L15.5323 9.43548C15.7742 9.24194 15.4839 9.09677 15.1452 9.29032L8.27419 13.6452L5.32258 12.7258C4.69355 12.5323 4.69355 12.0484 5.46774 11.7581L17.0323 7.30645C17.5645 7.1129 18.0484 7.45161 17.8548 8.22581Z" fill="#6E7191"/>
<path d="M49.687 1.687C48 3.374 48 6.08952 48 11.52V12.48C48 17.9105 48 20.626 49.687 22.313C51.374 24 54.0895 24 59.52 24H60.48C65.9105 24 68.626 24 70.313 22.313C72 20.626 72 17.9105 72 12.48V11.52C72 6.08952 72 3.374 70.313 1.687C68.626 0 65.9105 0 60.48 0H59.52C54.0895 0 51.374 0 49.687 1.687ZM52.05 7.30002H54.79C54.88 11.88 56.9 13.82 58.5 14.22V7.30002H61.08V11.25C62.66 11.08 64.32 9.28002 64.88 7.30002H67.46C67.2489 8.32687 66.8282 9.29909 66.2243 10.156C65.6203 11.0129 64.8461 11.7359 63.95 12.28C64.9505 12.7767 65.8343 13.4802 66.5428 14.3438C67.2513 15.2075 67.7684 16.2117 68.06 17.29H65.22C64.9583 16.3533 64.4257 15.5148 63.6892 14.8797C62.9527 14.2446 62.045 13.8411 61.08 13.72V17.29H60.77C55.3 17.29 52.18 13.54 52.05 7.30002Z" fill="#6E7191"/>
</svg>
